<svg width="111" height="27" viewBox="0 0 111 27" fill="none" xmlns="http://www.w3.org/2000/svg">
<g filter="url(#filter0_d_40_25)">
<path d="M9.09856 10.4705C9.09856 9.65298 9.2635 8.93589 9.59336 8.31918C9.92323 7.70248 10.3822 7.22202 10.9702 6.87781C11.5582 6.51927 12.2395 6.33999 13.0139 6.33999C13.9461 6.33999 14.7278 6.56229 15.3588 7.00689C15.9899 7.43715 16.4632 8.00366 16.7787 8.70641C17.1085 9.40917 17.2735 10.1693 17.2735 10.9868C17.2735 11.8043 17.1085 12.507 16.7787 13.0951C16.4632 13.6831 16.0114 14.142 15.4234 14.4719C14.8353 14.7874 14.1469 14.9452 13.3581 14.9452C12.5837 14.9452 11.8737 14.7659 11.2283 14.4073C10.583 14.0488 10.0666 13.5325 9.67941 12.8584C9.29218 12.1843 9.09856 11.3884 9.09856 10.4705ZM4.68841 10.4705C4.68841 11.6465 4.8892 12.7293 5.29078 13.7189C5.70669 14.7085 6.28754 15.569 7.03332 16.3005C7.79345 17.0176 8.67548 17.5769 9.67941 17.9785C10.6977 18.3657 11.8092 18.5593 13.0139 18.5593C14.2186 18.5593 15.3158 18.3657 16.3054 17.9785C17.3093 17.5769 18.177 17.0176 18.9085 16.3005C19.6399 15.569 20.1992 14.7085 20.5865 13.7189C20.9737 12.7293 21.1673 11.6465 21.1673 10.4705C21.1673 9.28009 20.9665 8.20445 20.565 7.24354C20.1634 6.26828 19.5969 5.43645 18.8654 4.74803C18.1483 4.04528 17.2878 3.50746 16.2839 3.13456C15.2943 2.74733 14.2043 2.55372 13.0139 2.55372C11.8522 2.55372 10.7694 2.74733 9.76547 3.13456C8.76153 3.50746 7.87233 4.04528 7.09786 4.74803C6.33774 5.43645 5.74255 6.26828 5.31229 7.24354C4.89637 8.20445 4.68841 9.28009 4.68841 10.4705ZM11.5295 11.5461L18.8439 18.3442H23.211L15.7245 11.5461H11.5295ZM25.0131 2.94095V13.052C25.0131 14.0703 25.178 14.938 25.5079 15.6551C25.8378 16.3722 26.2895 16.9602 26.8632 17.4192C27.4512 17.8638 28.1253 18.1936 28.8854 18.4087C29.6599 18.6239 30.4774 18.7314 31.3379 18.7314C32.2128 18.7314 33.0302 18.6239 33.7904 18.4087C34.5505 18.1936 35.2246 17.8638 35.8126 17.4192C36.4006 16.9602 36.8595 16.3722 37.1894 15.6551C37.5193 14.938 37.6842 14.0703 37.6842 13.052V2.94095H33.5107V12.7078C33.5107 13.3962 33.3314 13.9556 32.9729 14.3858C32.6143 14.8017 32.0693 15.0097 31.3379 15.0097C30.6208 15.0097 30.083 14.8017 29.7244 14.3858C29.3659 13.9556 29.1866 13.3962 29.1866 12.7078V2.94095H25.0131ZM44.7546 10.4705C44.7546 9.65298 44.9123 8.93589 45.2279 8.31918C45.5434 7.70248 45.988 7.22202 46.5617 6.87781C47.1353 6.51927 47.8094 6.33999 48.5839 6.33999C49.4014 6.33999 50.0898 6.51927 50.6491 6.87781C51.2228 7.22202 51.6602 7.70248 51.9614 8.31918C52.2626 8.93589 52.4132 9.65298 52.4132 10.4705C52.4132 11.2736 52.2554 11.9907 51.9399 12.6218C51.6244 13.2385 51.1798 13.7261 50.6061 14.0846C50.0467 14.4289 49.3727 14.601 48.5839 14.601C47.8094 14.601 47.1353 14.4289 46.5617 14.0846C45.988 13.7261 45.5434 13.2385 45.2279 12.6218C44.9123 11.9907 44.7546 11.2736 44.7546 10.4705ZM40.3444 10.4705C40.3444 11.6465 40.5452 12.7293 40.9468 13.7189C41.3484 14.7085 41.9149 15.569 42.6463 16.3005C43.3921 17.0176 44.2669 17.5769 45.2709 17.9785C46.2748 18.3657 47.3791 18.5593 48.5839 18.5593C49.7886 18.5593 50.8929 18.3657 51.8969 17.9785C52.9151 17.5769 53.79 17.0176 54.5214 16.3005C55.2529 15.569 55.8194 14.7085 56.221 13.7189C56.6225 12.7293 56.8233 11.6465 56.8233 10.4705C56.8233 9.28009 56.6154 8.20445 56.1994 7.24354C55.7979 6.26828 55.2242 5.43645 54.4784 4.74803C53.7326 4.04528 52.8578 3.50746 51.8538 3.13456C50.8642 2.74733 49.7743 2.55372 48.5839 2.55372C47.4222 2.55372 46.3394 2.74733 45.3354 3.13456C44.3458 3.50746 43.4781 4.04528 42.7324 4.74803C41.9866 5.43645 41.3985 6.26828 40.9683 7.24354C40.5524 8.20445 40.3444 9.28009 40.3444 10.4705ZM57.443 6.66269H61.6595V18H65.833V6.66269H70.0496V2.94095H57.443V6.66269ZM75.0157 18H82.6098V14.6225H75.0157V18ZM75.0157 6.31848H82.6098V2.94095H75.0157V6.31848ZM75.0157 11.8043H82.1795V8.53431H75.0157V11.8043ZM72.176 2.94095V18H76.1774V2.94095H72.176Z" fill="white"/>
<path d="M84.7426 8.10405V11.1159H92.0354V8.10405H84.7426ZM91.6052 4.66198L93.025 1.99438C92.8673 1.85096 92.6593 1.68603 92.4012 1.49958C92.143 1.31314 91.8203 1.15538 91.4331 1.0263C91.0602 0.89722 90.5941 0.832681 90.0347 0.832681C89.1455 0.832681 88.4069 0.983272 87.8189 1.28445C87.2309 1.58563 86.7863 2.00872 86.4851 2.55372C86.1983 3.08437 86.0548 3.71541 86.0548 4.44685V18H89.6045V5.43645C89.6045 5.13527 89.6475 4.89145 89.7336 4.70501C89.8196 4.50422 89.9343 4.3608 90.0778 4.27475C90.2355 4.17436 90.422 4.12416 90.6371 4.12416C90.8235 4.12416 90.9957 4.17436 91.1534 4.27475C91.3112 4.3608 91.4618 4.48988 91.6052 4.66198ZM106.327 13.2241C106.327 12.1628 106.105 11.2736 105.66 10.5565C105.216 9.82509 104.642 9.27292 103.939 8.90003C103.236 8.52714 102.498 8.34069 101.723 8.34069C101.221 8.34069 100.741 8.37655 100.282 8.44826C99.823 8.51997 99.3928 8.65622 98.9912 8.857L99.7872 6.55512H105.94V2.94095H96.7538L94.6241 11.8258C95.1404 11.5963 95.6567 11.4242 96.173 11.3095C96.7036 11.1947 97.2128 11.1159 97.7004 11.0728C98.188 11.0298 98.6111 11.0083 98.9697 11.0083C99.4143 11.0083 99.8445 11.0657 100.26 11.1804C100.691 11.2808 101.042 11.4529 101.315 11.6967C101.601 11.9405 101.745 12.2776 101.745 12.7078C101.745 13.1237 101.63 13.4679 101.401 13.7404C101.171 14.0129 100.848 14.2066 100.433 14.3213C100.031 14.436 99.5433 14.4934 98.9697 14.4934C98.6541 14.4934 98.2884 14.4504 97.8725 14.3643C97.4566 14.2639 97.012 14.1133 96.5387 13.9125C96.0798 13.7118 95.6208 13.4536 95.1619 13.1381L93.7851 16.7092C94.287 16.9961 94.8392 17.2614 95.4415 17.5052C96.0583 17.7347 96.7467 17.9211 97.5068 18.0645C98.2669 18.2223 99.1059 18.3012 100.024 18.3012C100.755 18.3012 101.487 18.2008 102.218 18C102.964 17.8136 103.645 17.5195 104.262 17.118C104.879 16.7021 105.373 16.1714 105.746 15.526C106.133 14.8806 106.327 14.1133 106.327 13.2241Z" fill="#FF27F6"/>
</g>
<defs>
<filter id="filter0_d_40_25" x="0.688354" y="0.832703" width="109.639" height="25.8987" filterUnits="userSpaceOnUse" color-interpolation-filters="sRGB">
<feFlood flood-opacity="0" result="BackgroundImageFix"/>
<feColorMatrix in="SourceAlpha" type="matrix" values="0 0 0 0 0 0 0 0 0 0 0 0 0 0 0 0 0 0 127 0" result="hardAlpha"/>
<feOffset dy="4"/>
<feGaussianBlur stdDeviation="2"/>
<feComposite in2="hardAlpha" operator="out"/>
<feColorMatrix type="matrix" values="0 0 0 0 0 0 0 0 0 0 0 0 0 0 0 0 0 0 0.25 0"/>
<feBlend mode="normal" in2="BackgroundImageFix" result="effect1_dropShadow_40_25"/>
<feBlend mode="normal" in="SourceGraphic" in2="effect1_dropShadow_40_25" result="shape"/>
</filter>
</defs>
</svg>
